<?xml version="1.0" standalone="no"?>
<!DOCTYPE svg PUBLIC "-//W3C//DTD SVG 20010904//EN"
 "http://www.w3.org/TR/2001/REC-SVG-20010904/DTD/svg10.dtd">
<svg version="1.0" xmlns="http://www.w3.org/2000/svg"
 width="4167.000000pt" height="4167.000000pt" viewBox="0 0 4167.000000 4167.000000"
 preserveAspectRatio="xMidYMid meet">
<metadata>
Created by potrace 1.11, written by Peter Selinger 2001-2013
</metadata>
<g transform="translate(0.000000,4167.000000) scale(0.100000,-0.100000)"
fill="#000000" stroke="none">
<path d="M19848 38325 c-2 -2 -43 -6 -93 -9 -49 -4 -117 -9 -150 -11 -58 -5
-335 -42 -379 -51 -11 -2 -41 -7 -66 -10 -25 -3 -48 -8 -51 -10 -3 -2 -21 -6
-40 -9 -81 -13 -277 -60 -439 -106 -96 -27 -182 -51 -190 -54 -101 -26 -527
-188 -685 -260 -301 -137 -482 -230 -756 -391 -63 -36 -133 -79 -157 -95 -24
-16 -45 -29 -48 -29 -3 0 -10 -5 -17 -10 -7 -6 -46 -32 -87 -58 -130 -81 -491
-335 -572 -401 -7 -6 -87 -70 -178 -143 -174 -139 -315 -256 -390 -324 -25
-22 -94 -85 -155 -140 -286 -257 -687 -663 -959 -969 -49 -55 -103 -116 -120
-135 -109 -123 -442 -523 -488 -585 -4 -5 -20 -26 -36 -45 -66 -80 -307 -398
-433 -570 -207 -283 -585 -832 -627 -910 -7 -14 -19 -32 -26 -40 -24 -27 -301
-471 -450 -721 -80 -134 -150 -251 -155 -259 -10 -16 -131 -227 -248 -433 -40
-71 -73 -130 -73 -132 0 -2 -17 -34 -38 -72 -273 -485 -666 -1271 -972 -1943
-131 -288 -128 -282 -210 -470 -39 -91 -77 -178 -84 -195 -8 -16 -33 -75 -56
-130 -23 -55 -47 -114 -55 -130 -7 -17 -39 -93 -70 -170 -31 -77 -63 -153 -71
-170 -7 -16 -61 -151 -119 -300 -58 -148 -112 -286 -120 -305 -25 -63 -174
-465 -175 -475 -1 -3 -8 -22 -17 -42 -18 -43 -81 -221 -154 -433 -28 -80 -54
-154 -59 -165 -10 -21 -239 -710 -245 -735 -2 -8 -8 -28 -13 -45 -39 -122
-112 -356 -120 -385 -6 -19 -34 -111 -62 -205 -28 -93 -53 -177 -55 -185 -2
-8 -20 -71 -40 -140 -21 -69 -39 -132 -40 -140 -2 -8 -20 -73 -40 -145 -37
-133 -123 -448 -130 -475 -2 -8 -20 -80 -40 -160 -20 -80 -38 -152 -40 -160
-2 -8 -20 -80 -40 -160 -43 -172 -121 -510 -130 -560 -3 -19 -12 -57 -20 -85
-8 -27 -16 -63 -19 -80 -2 -16 -16 -84 -31 -150 -14 -66 -35 -167 -46 -225
-12 -58 -22 -112 -24 -120 -5 -21 -44 -221 -49 -245 -8 -40 -35 -191 -41 -220
-2 -16 -7 -39 -9 -50 -2 -11 -7 -40 -11 -65 -4 -25 -9 -52 -10 -60 -1 -8 -6
-35 -10 -60 -4 -25 -9 -54 -11 -65 -4 -18 -9 -50 -19 -115 -2 -14 -11 -65 -19
-115 -8 -49 -17 -108 -21 -130 -3 -22 -10 -67 -15 -100 -5 -33 -12 -82 -16
-110 -3 -27 -8 -57 -9 -65 -2 -9 -6 -43 -10 -75 -4 -33 -9 -67 -10 -75 -2 -9
-6 -43 -10 -75 -4 -33 -9 -69 -11 -80 -2 -11 -6 -47 -9 -80 -3 -33 -8 -71 -10
-85 -5 -33 -19 -159 -29 -255 -7 -66 -14 -134 -21 -220 -3 -38 -8 -86 -10
-105 -3 -19 -7 -71 -10 -115 -3 -44 -8 -102 -10 -130 -4 -50 -13 -195 -20
-310 -26 -444 -26 -1136 0 -1510 2 -27 6 -93 10 -145 3 -52 8 -115 10 -140 3
-25 7 -72 10 -105 3 -33 8 -87 11 -120 3 -33 12 -114 20 -180 8 -66 17 -140
20 -165 3 -25 9 -70 14 -100 5 -30 12 -75 15 -100 42 -314 141 -805 242 -1200
25 -96 47 -183 49 -194 2 -10 12 -48 23 -85 11 -36 43 -140 70 -231 162 -536
336 -996 584 -1545 40 -88 295 -600 339 -680 44 -79 177 -316 188 -335 5 -8
66 -108 135 -222 340 -562 822 -1223 1190 -1632 6 -6 39 -45 75 -86 36 -41 74
-84 85 -96 11 -12 63 -68 115 -125 174 -191 568 -579 785 -774 55 -50 105 -94
111 -100 6 -5 32 -28 59 -50 26 -22 54 -46 61 -52 12 -13 200 -168 330 -274
89 -72 375 -289 483 -365 46 -32 104 -74 130 -92 25 -18 129 -88 231 -156 329
-219 605 -385 945 -568 61 -33 121 -66 135 -74 37 -21 367 -184 505 -249 180
-86 754 -328 805 -341 3 0 12 -3 20 -7 8 -3 74 -27 145 -52 72 -26 139 -51
150 -56 24 -10 278 -93 420 -137 192 -59 455 -133 600 -167 11 -3 67 -16 125
-31 176 -43 383 -89 450 -99 19 -3 42 -8 50 -10 8 -2 29 -7 45 -10 17 -2 41
-7 55 -10 14 -3 50 -9 80 -15 30 -5 69 -12 85 -15 32 -5 143 -23 185 -30 41
-6 114 -17 130 -20 8 -1 42 -6 75 -10 32 -4 66 -8 75 -10 8 -1 40 -6 71 -9 31
-4 65 -8 75 -10 11 -2 51 -7 89 -11 39 -3 84 -8 100 -10 17 -2 62 -7 100 -10
39 -3 88 -8 110 -10 22 -3 76 -7 120 -10 44 -3 107 -8 140 -10 196 -15 370
-19 795 -19 468 -1 689 6 945 29 33 3 87 8 120 11 33 2 76 7 95 9 19 2 69 7
110 11 41 3 82 8 92 9 9 2 45 6 80 9 34 3 74 8 88 10 29 5 112 16 155 22 17 2
48 6 70 9 22 4 51 8 65 10 34 5 209 34 240 40 59 12 138 25 170 29 19 3 80 14
135 26 55 12 109 24 120 26 11 2 63 13 115 25 207 46 320 72 380 88 25 7 61
17 80 22 58 15 378 105 475 134 79 23 424 136 465 152 8 3 20 7 25 9 9 2 60
21 320 119 89 34 196 77 340 138 117 49 193 83 390 172 165 75 578 283 725
366 25 14 81 46 125 70 106 59 93 51 272 158 87 52 191 116 231 143 41 26 76
48 79 48 10 0 442 296 603 414 532 388 946 743 1425 1221 268 268 306 308 550
580 33 37 128 149 217 254 16 19 65 80 247 306 105 132 367 493 475 655 31 47
59 90 64 95 35 46 253 394 335 535 27 47 57 99 67 115 252 431 520 983 734
1508 151 372 309 835 419 1227 37 129 96 351 102 379 6 29 35 154 55 236 19
82 75 345 85 406 3 19 17 95 30 169 27 154 32 188 70 445 12 84 34 268 40 330
4 39 8 81 10 95 2 14 7 61 10 105 3 44 8 94 10 110 3 26 10 110 20 275 19 289
25 967 12 1275 -11 237 -17 348 -22 410 -2 33 -7 96 -10 140 -6 86 -12 161
-20 240 -2 28 -7 82 -10 120 -4 39 -8 86 -10 105 -2 19 -7 62 -10 95 -3 33 -7
71 -10 85 -2 14 -6 54 -9 90 -3 36 -8 75 -10 87 -3 12 -7 53 -11 90 -3 37 -7
75 -10 83 -2 8 -6 40 -10 70 -3 30 -7 66 -10 80 -11 67 -23 154 -30 220 -2 19
-8 64 -14 100 -6 36 -13 83 -16 105 -11 74 -69 425 -86 517 -5 32 -12 70 -15
85 -3 16 -11 64 -20 108 -8 44 -17 96 -20 115 -3 19 -9 51 -15 71 l-9 36 -182
-74 c-101 -41 -190 -77 -198 -80 -32 -12 -449 -176 -705 -278 -148 -59 -400
-159 -560 -221 -159 -63 -299 -119 -310 -124 -11 -5 -157 -64 -324 -130 l-304
-120 -216 136 c-119 75 -245 156 -281 179 -36 23 -153 97 -260 165 -107 68
-231 146 -275 174 -109 71 -186 119 -207 131 -10 6 -107 67 -216 136 -108 70
-298 191 -422 269 -224 142 -346 219 -470 298 -36 23 -114 72 -173 109 -117
74 -405 257 -814 517 l-263 167 -92 -64 c-51 -34 -246 -170 -433 -302 -187
-131 -362 -254 -390 -273 -27 -19 -60 -42 -71 -51 -12 -9 -30 -22 -40 -28 -11
-7 -98 -68 -194 -136 -96 -67 -211 -148 -255 -178 -68 -47 -185 -130 -575
-404 -30 -21 -85 -59 -121 -84 -111 -78 -373 -261 -517 -362 -75 -53 -157
-111 -182 -128 -25 -17 -73 -52 -107 -76 -35 -25 -67 -45 -72 -45 -6 0 -81 59
-168 132 -87 73 -214 179 -283 236 -69 58 -138 116 -155 131 -46 40 -266 223
-301 251 -17 14 -76 62 -130 108 -130 109 -121 102 -259 217 -66 55 -122 102
-125 105 -4 4 -90 77 -145 122 -39 32 -360 301 -385 322 -14 11 -77 64 -140
116 -63 52 -117 97 -120 100 -3 3 -45 39 -95 80 -49 41 -101 84 -115 96 -142
123 -234 193 -244 186 -15 -12 -263 -208 -306 -242 -146 -116 -210 -167 -315
-250 -66 -52 -127 -100 -135 -107 -48 -39 -146 -116 -305 -242 -99 -78 -196
-155 -215 -170 -19 -16 -96 -76 -170 -134 -74 -59 -141 -112 -148 -118 -8 -6
-138 -110 -290 -230 -153 -120 -284 -224 -292 -232 -8 -7 -31 -25 -51 -40
l-35 -26 -350 356 c-423 431 -500 509 -1056 1075 -241 245 -509 517 -595 606
-368 375 -1015 1032 -1097 1114 -49 50 -76 81 -60 71 16 -10 238 -169 492
-353 255 -184 471 -339 480 -345 9 -5 19 -12 22 -16 3 -3 68 -50 145 -105 197
-142 406 -292 435 -314 14 -10 93 -67 175 -126 83 -59 161 -116 175 -126 14
-11 117 -86 230 -166 336 -241 713 -513 735 -530 6 -4 57 -41 115 -83 58 -41
178 -128 267 -192 88 -64 165 -117 170 -116 4 0 49 50 98 111 50 60 173 210
274 332 101 121 198 239 217 261 79 97 209 254 244 295 21 25 108 131 195 235
206 250 231 279 285 344 19 23 42 50 50 60 8 10 31 38 51 62 20 24 130 157
244 294 204 247 269 325 312 375 l22 25 73 -72 c40 -39 112 -109 159 -155 48
-45 200 -193 339 -328 139 -135 287 -279 330 -320 43 -41 198 -193 346 -336
148 -144 306 -297 351 -340 44 -44 194 -189 333 -324 139 -135 293 -285 344
-333 50 -49 142 -138 203 -199 l113 -110 32 27 c49 41 144 125 187 165 20 19
64 58 97 87 32 28 71 62 85 75 47 43 183 164 379 338 220 195 346 308 370 330
9 8 52 46 96 84 43 39 84 75 89 80 6 6 39 36 74 66 35 30 78 68 96 85 17 16
47 44 66 60 141 124 279 247 314 280 12 11 39 35 61 54 31 27 111 99 208 186
6 6 50 44 96 85 47 41 90 79 96 85 6 5 44 39 85 75 40 36 83 74 95 85 12 11
48 43 80 71 33 29 71 62 85 75 14 13 58 53 99 89 41 36 87 77 104 93 17 15 35
27 41 27 10 0 59 -28 121 -68 10 -6 28 -16 39 -22 11 -5 37 -20 57 -32 31 -20
330 -197 408 -243 14 -8 139 -82 278 -165 140 -82 256 -150 258 -150 3 0 17
-9 32 -19 15 -10 155 -94 312 -186 291 -171 390 -230 425 -253 11 -6 27 -15
35 -19 8 -4 38 -21 65 -38 28 -17 57 -35 65 -38 8 -4 27 -15 42 -25 14 -9 62
-38 105 -63 80 -47 443 -261 491 -290 15 -9 88 -52 162 -96 74 -44 198 -117
275 -163 77 -46 149 -88 160 -94 11 -6 63 -37 116 -69 117 -69 124 -72 141
-57 7 6 114 78 238 159 252 166 590 388 940 619 129 85 312 206 405 267 226
148 679 447 683 451 2 1 -1 17 -7 36 -6 18 -20 67 -31 108 -30 113 -147 522
-180 630 -15 52 -72 235 -124 405 -53 171 -98 317 -100 325 -47 172 -533 1555
-610 1735 -7 17 -24 57 -36 90 -57 150 -73 191 -81 210 -5 11 -56 138 -113
283 -58 144 -117 287 -131 317 -14 31 -25 58 -25 61 0 6 -186 442 -221 519
-10 22 -55 123 -100 225 -45 102 -104 232 -130 289 -27 57 -49 105 -49 106 0
2 -30 65 -66 141 -36 77 -75 159 -86 184 -32 71 -402 814 -464 930 -179 338
-217 409 -267 500 -17 30 -41 75 -55 100 -13 25 -46 83 -72 130 -27 47 -59
104 -72 127 -77 137 -198 345 -308 528 -69 116 -133 221 -141 235 -8 13 -29
46 -46 72 -18 26 -33 50 -33 53 0 3 -35 60 -79 128 -43 67 -91 142 -107 167
-243 390 -775 1141 -1083 1530 -173 219 -267 336 -278 348 -7 7 -29 34 -50 60
-21 26 -42 52 -48 58 -5 6 -29 33 -52 60 -55 65 -75 88 -136 159 -62 71 -214
241 -242 271 -11 12 -72 77 -135 145 -295 316 -707 711 -992 951 -28 24 -81
68 -117 99 -36 31 -133 109 -216 173 -82 65 -158 124 -167 132 -49 38 -379
271 -493 346 -119 78 -480 298 -490 298 -2 0 -28 14 -57 31 -160 96 -577 291
-838 394 -160 62 -531 185 -635 210 -11 3 -64 16 -118 29 -179 45 -408 90
-567 111 -19 3 -51 7 -70 10 -36 6 -65 9 -190 20 -41 4 -88 9 -105 12 -34 4
-662 12 -667 8z"/>
</g>
</svg>
