<?xml version="1.0" standalone="no"?>
<!DOCTYPE svg PUBLIC "-//W3C//DTD SVG 20010904//EN"
 "http://www.w3.org/TR/2001/REC-SVG-20010904/DTD/svg10.dtd">
<svg version="1.0" xmlns="http://www.w3.org/2000/svg"
 width="525.000000pt" height="525.000000pt" viewBox="0 0 525.000000 525.000000"
 preserveAspectRatio="xMidYMid meet">
<metadata>
Created by potrace 1.11, written by Peter Selinger 2001-2013
</metadata>
<g transform="translate(0.000000,525.000000) scale(0.100000,-0.100000)"
fill="#000000" stroke="none">
<path d="M2521 5134 c-155 -42 -300 -180 -348 -331 -20 -64 -28 -71 -118 -108
-353 -143 -631 -448 -804 -884 -89 -221 -124 -395 -124 -606 0 -179 21 -286
83 -430 22 -52 40 -103 40 -113 0 -10 -22 -53 -50 -97 -122 -193 -142 -431
-53 -635 72 -164 275 -322 436 -339 34 -4 67 -10 73 -14 6 -3 17 -28 23 -54
16 -62 64 -156 111 -219 69 -92 162 -155 287 -194 97 -30 117 -53 141 -165 46
-207 159 -372 341 -493 174 -117 332 -162 566 -162 225 0 371 31 530 113 62
32 102 63 181 142 90 89 106 111 153 205 71 145 93 235 94 385 1 105 -3 129
-26 198 -15 43 -43 109 -62 148 l-36 70 26 31 c14 17 38 54 53 82 23 44 27 63
27 136 0 90 -15 131 -71 207 -13 17 -24 34 -24 36 0 2 14 22 31 43 96 121 112
246 38 308 -37 32 -64 32 -141 5 -51 -19 -64 -20 -98 -10 -54 16 -58 39 -26
148 29 103 46 191 46 245 0 34 8 48 66 109 36 38 74 89 85 113 42 97 34 238
-22 373 -86 206 -311 410 -499 453 -76 18 -85 23 -124 84 -59 92 -168 163
-343 220 -49 16 -83 33 -83 41 0 7 15 23 33 34 46 28 138 127 169 181 90 157
85 374 -12 520 -72 109 -179 189 -299 224 -67 20 -197 20 -270 0z m1104 -2258
c38 -16 65 -60 65 -107 0 -18 -16 -100 -36 -182 -40 -167 -39 -208 3 -258 46
-55 97 -73 196 -72 84 2 87 1 87 -21 0 -12 -13 -37 -28 -56 -26 -30 -35 -34
-99 -41 -39 -4 -88 -17 -109 -28 -22 -11 -84 -65 -139 -121 -146 -148 -176
-158 -228 -76 -61 97 -156 94 -209 -7 -17 -32 -22 -61 -23 -122 -2 -100 -7
-114 -50 -144 -103 -70 -225 -65 -327 14 -70 53 -98 118 -98 225 0 141 53 276
162 411 84 106 117 180 129 289 10 103 19 120 69 149 63 35 261 111 355 136
105 28 228 33 280 11z m-880 -376 c9 -14 -20 -63 -69 -118 -60 -68 -112 -158
-147 -253 -98 -270 -16 -516 209 -622 62 -29 75 -32 168 -32 97 0 104 2 175
38 41 20 77 37 81 37 4 0 27 -20 51 -43 91 -92 200 -123 395 -113 121 6 137 5
180 -14 124 -55 184 -175 162 -327 -42 -301 -238 -527 -525 -605 -115 -31
-345 -31 -460 0 -300 81 -505 303 -507 549 0 39 7 96 16 127 27 92 -7 128 -96
101 -104 -31 -239 -15 -349 40 -64 33 -143 122 -169 192 -60 160 -35 380 59
516 38 56 139 149 198 183 25 15 105 53 179 85 163 70 274 135 360 211 66 59
78 66 89 48z m1075 -510 c20 0 84 -67 101 -105 23 -50 24 -126 3 -171 -21 -43
-104 -118 -166 -150 -186 -94 -432 -55 -497 78 -28 60 -36 118 -18 142 14 19
15 19 47 -7 39 -33 69 -41 126 -33 76 10 136 49 225 146 79 86 122 115 157
104 8 -2 18 -4 22 -4z"/>
<path d="M3415 2809 c-98 -24 -204 -76 -267 -130 -39 -33 -48 -47 -48 -74 0
-65 52 -75 129 -26 61 40 136 66 226 81 97 16 122 27 134 61 19 56 -19 111
-77 108 -9 0 -53 -9 -97 -20z"/>
<path d="M3400 2585 c-93 -30 -220 -160 -220 -225 0 -47 34 -60 93 -35 12 5
26 -2 50 -28 42 -45 67 -57 120 -57 85 0 133 65 123 165 -5 47 -2 66 10 83 48
69 -66 132 -176 97z m71 -152 c15 -40 0 -78 -31 -78 -35 0 -50 44 -26 79 21
34 44 33 57 -1z"/>
</g>
</svg>
